<svg width="21" height="20" viewBox="0 0 21 20" fill="none" xmlns="http://www.w3.org/2000/svg">
<g clip-path="url(#clip0_5346_5519)">
<path d="M10.9 5.83333C10.9 4.94928 10.5488 4.10143 9.9237 3.47631C9.29858 2.85119 8.45073 2.5 7.56668 2.5H2.56668V15H8.40001C9.06305 15 9.69894 15.2634 10.1678 15.7322C10.6366 16.2011 10.9 16.837 10.9 17.5M10.9 5.83333V17.5M10.9 5.83333C10.9 4.94928 11.2512 4.10143 11.8763 3.47631C12.5014 2.85119 13.3493 2.5 14.2333 2.5H19.2333V15H13.4C12.737 15 12.1011 15.2634 11.6322 15.7322C11.1634 16.2011 10.9 16.837 10.9 17.5" stroke="#7D81A7" stroke-width="2" stroke-linecap="round" stroke-linejoin="round"/>
</g>
<defs>
<clipPath id="clip0_5346_5519">
<rect width="20" height="20" fill="white" transform="translate(0.900013)"/>
</clipPath>
</defs>
</svg>
