<svg width="21" height="20" viewBox="0 0 21 20" fill="none" xmlns="http://www.w3.org/2000/svg">
<path d="M10.5 10.8334C10.9603 10.8334 11.3334 10.4603 11.3334 10.0001C11.3334 9.53984 10.9603 9.16675 10.5 9.16675C10.0398 9.16675 9.66671 9.53984 9.66671 10.0001C9.66671 10.4603 10.0398 10.8334 10.5 10.8334Z" stroke="#7D81A7" stroke-width="2" stroke-linecap="round" stroke-linejoin="round"/>
<path d="M16.3334 10.8334C16.7936 10.8334 17.1667 10.4603 17.1667 10.0001C17.1667 9.53984 16.7936 9.16675 16.3334 9.16675C15.8731 9.16675 15.5 9.53984 15.5 10.0001C15.5 10.4603 15.8731 10.8334 16.3334 10.8334Z" stroke="#7D81A7" stroke-width="2" stroke-linecap="round" stroke-linejoin="round"/>
<path d="M4.66671 10.8334C5.12694 10.8334 5.50004 10.4603 5.50004 10.0001C5.50004 9.53984 5.12694 9.16675 4.66671 9.16675C4.20647 9.16675 3.83337 9.53984 3.83337 10.0001C3.83337 10.4603 4.20647 10.8334 4.66671 10.8334Z" stroke="#7D81A7" stroke-width="2" stroke-linecap="round" stroke-linejoin="round"/>
</svg>
