<svg width="21" height="20" viewBox="0 0 21 20" fill="none" xmlns="http://www.w3.org/2000/svg">
<g clip-path="url(#clip0_5331_6047)">
<path d="M13.6502 10.0002L18.2168 12.6085C18.3451 12.6812 18.4517 12.7866 18.526 12.914C18.6002 13.0414 18.6393 13.1861 18.6393 13.3335C18.6393 13.4809 18.6002 13.6257 18.526 13.7531C18.4517 13.8805 18.3451 13.9859 18.2168 14.0585L11.1335 18.1169C10.8801 18.2632 10.5927 18.3402 10.3002 18.3402C10.0076 18.3402 9.72018 18.2632 9.46682 18.1169L2.38349 14.0585C2.25524 13.9859 2.14856 13.8805 2.07435 13.7531C2.00013 13.6257 1.96103 13.4809 1.96103 13.3335C1.96103 13.1861 2.00013 13.0414 2.07435 12.914C2.14856 12.7866 2.25524 12.6812 2.38349 12.6085L6.95015 10.0002M11.1335 11.4501C10.8801 11.5964 10.5927 11.6734 10.3002 11.6734C10.0076 11.6734 9.72018 11.5964 9.46682 11.4501L2.38349 7.39178C2.25524 7.3191 2.14856 7.2137 2.07435 7.08633C2.00013 6.95897 1.96103 6.81419 1.96103 6.66678C1.96103 6.51937 2.00013 6.3746 2.07435 6.24723C2.14856 6.11986 2.25524 6.01446 2.38349 5.94178L9.46682 1.88345C9.72018 1.73717 10.0076 1.66016 10.3002 1.66016C10.5927 1.66016 10.8801 1.73717 11.1335 1.88345L18.2168 5.94178C18.3451 6.01446 18.4517 6.11986 18.526 6.24723C18.6002 6.3746 18.6393 6.51937 18.6393 6.66678C18.6393 6.81419 18.6002 6.95897 18.526 7.08633C18.4517 7.2137 18.3451 7.3191 18.2168 7.39178L11.1335 11.4501Z" stroke="#7D81A7" stroke-width="2" stroke-linecap="round" stroke-linejoin="round"/>
</g>
<defs>
<clipPath id="clip0_5331_6047">
<rect width="20" height="20" fill="white" transform="translate(0.300049)"/>
</clipPath>
</defs>
</svg>
