<svg width="16" height="16" viewBox="0 0 16 16" fill="none" xmlns="http://www.w3.org/2000/svg">
<path d="M11.2666 7.53337H4.73326C4.21779 7.53337 3.79993 7.95124 3.79993 8.46671V11.7334C3.79993 12.2488 4.21779 12.6667 4.73326 12.6667H11.2666C11.7821 12.6667 12.1999 12.2488 12.1999 11.7334V8.46671C12.1999 7.95124 11.7821 7.53337 11.2666 7.53337Z" fill="#7D81A7"/>
<path d="M5.66659 7.53337V5.66671C5.66659 5.04787 5.91243 4.45438 6.35001 4.01679C6.7876 3.57921 7.38109 3.33337 7.99993 3.33337C8.61877 3.33337 9.21226 3.57921 9.64984 4.01679C10.0874 4.45438 10.3333 5.04787 10.3333 5.66671V7.53337M4.73326 7.53337H11.2666C11.7821 7.53337 12.1999 7.95124 12.1999 8.46671V11.7334C12.1999 12.2488 11.7821 12.6667 11.2666 12.6667H4.73326C4.21779 12.6667 3.79993 12.2488 3.79993 11.7334V8.46671C3.79993 7.95124 4.21779 7.53337 4.73326 7.53337Z" stroke="#7D81A7" stroke-width="1.05" stroke-linecap="round" stroke-linejoin="round"/>
</svg>
