<svg width="40" height="40" viewBox="0 0 40 40" fill="none" xmlns="http://www.w3.org/2000/svg">
<rect width="40" height="40" rx="20" fill="#2B63F1"/>
<path d="M15.8336 22.5385C15.6126 22.5385 15.4006 22.6276 15.2443 22.7863C15.0881 22.945 15.0003 23.1602 15.0003 23.3846V24.0837C15.0026 25.2174 15.4384 26.3059 16.2156 27.1198C16.9928 27.9337 18.0508 28.4094 19.1667 28.4466V30.1538C19.1667 30.3783 19.2545 30.5935 19.4108 30.7522C19.567 30.9109 19.779 31 20 31C20.221 31 20.433 30.9109 20.5892 30.7522C20.7455 30.5935 20.8333 30.3783 20.8333 30.1538V28.4466C21.8217 28.4147 22.7691 28.038 23.5162 27.3801C24.2632 26.7221 24.7643 25.823 24.9352 24.8339C25.1061 23.8449 24.9364 22.8262 24.4546 21.9493C23.9727 21.0724 23.2082 20.3907 22.2895 20.019L18.3293 18.4097C17.7587 18.1778 17.2854 17.7514 16.9908 17.2037C16.6962 16.6561 16.5986 16.0213 16.7148 15.4084C16.831 14.7956 17.1538 14.243 17.6277 13.8456C18.1016 13.4482 18.6969 13.2308 19.3115 13.2308H20.6885C21.3896 13.2316 22.0619 13.5148 22.5577 14.0182C23.0535 14.5217 23.3324 15.2043 23.3332 15.9163V16.6154C23.3332 16.8398 23.4209 17.055 23.5772 17.2137C23.7335 17.3724 23.9454 17.4615 24.1664 17.4615C24.3874 17.4615 24.5994 17.3724 24.7557 17.2137C24.9119 17.055 24.9997 16.8398 24.9997 16.6154V15.9163C24.9974 14.7826 24.5616 13.6941 23.7844 12.8802C23.0072 12.0663 21.9492 11.5906 20.8333 11.5534V9.84615C20.8333 9.62174 20.7455 9.40652 20.5892 9.24783C20.433 9.08915 20.221 9 20 9C19.779 9 19.567 9.08915 19.4108 9.24783C19.2545 9.40652 19.1667 9.62174 19.1667 9.84615V11.5534C18.1783 11.5853 17.2309 11.962 16.4838 12.6199C15.7368 13.2779 15.2357 14.177 15.0648 15.1661C14.8939 16.1551 15.0636 17.1738 15.5454 18.0507C16.0273 18.9276 16.7918 19.6093 17.7105 19.981L21.6707 21.5903C22.2413 21.8222 22.7146 22.2486 23.0092 22.7963C23.3038 23.3439 23.4014 23.9787 23.2852 24.5916C23.169 25.2044 22.8462 25.757 22.3723 26.1544C21.8984 26.5518 21.3031 26.7692 20.6885 26.7692H19.3115C18.6104 26.7684 17.9381 26.4852 17.4423 25.9818C16.9465 25.4783 16.6676 24.7957 16.6668 24.0837V23.3846C16.6668 23.1602 16.5791 22.945 16.4228 22.7863C16.2665 22.6276 16.0546 22.5385 15.8336 22.5385Z" fill="white"/>
</svg>
